<svg xmlns="http://www.w3.org/2000/svg"><symbol id="comment" viewBox="0 0 512 512"><path d="M302 328c31-13 55-31 73-54 18-22 27-47 27-73s-9-51-27-73c-18-23-42-41-73-54s-65-19-101-19-70 6-101 19-55 31-73 54a112 112 0 0 0-7 137c14 20 32 37 56 50a157 157 0 0 1-13 24 985 985 0 0 0-24 28l-1 2-1 1v5c0 3 1 5 3 6l6 3h1a239 239 0 0 0 104-41 287 287 0 0 0 151-15z"/><path d="M491 338a112 112 0 0 0-1-130c-14-20-33-37-58-50a147 147 0 0 1-13 115c-12 23-31 44-54 61-22 16-48 28-76 37a302 302 0 0 1-113 12c38 25 83 37 135 37 16 0 33-1 50-4a240 240 0 0 0 104 41l6-2 4-6v-4l-1-2v-1a14 14 0 0 0-2-3 36 36 0 0 1-3-3 199 199 0 0 0-14-16 868 868 0 0 0-13-19l-6-12c23-14 42-31 55-51z"/></symbol><symbol id="logout" viewBox="0 0 447.7 447.7"><path d="M182.7 379.2a7.4 7.4 0 0 1-.5-4c.1-1-.5-1.8-2-2.5-1.6-.6-2.3-1.2-2.3-1.5 0-.4-1.1-.7-3.3-.9l-3.3-.3H82.2A44 44 0 0 1 50 356.6a44 44 0 0 1-13.5-32.3v-201A44 44 0 0 1 50 91.1a44 44 0 0 1 32.2-13.4h91.4c2.5 0 4.4-.7 5.8-1.9 1.5-1.2 2.4-3 2.9-5.6A48 48 0 0 0 183 56l-.3-5.8c0-2.4-.9-4.6-2.7-6.4a8.8 8.8 0 0 0-6.4-2.7H82.2c-22.6 0-42 8-58 24.1A79.2 79.2 0 0 0 0 123.3v201c0 22.7 8 42 24.1 58.1s35.5 24.2 58.1 24.2h91.4c2.5 0 4.4-.7 5.8-1.9 1.5-1.2 2.4-3 2.9-5.6a48.1 48.1 0 0 0 .7-14.2l-.3-5.7z"/><path d="M442.2 211L287 55.7a17.6 17.6 0 0 0-12.8-5.5c-5 0-9.2 1.9-12.9 5.5a17.6 17.6 0 0 0-5.4 12.8v82.2H128c-5 0-9.2 1.9-12.8 5.5a17.6 17.6 0 0 0-5.5 12.8v109.7c0 4.9 1.8 9.2 5.5 12.8 3.6 3.6 7.9 5.4 12.8 5.4h128v82.3c0 4.9 1.7 9.2 5.3 12.8 3.7 3.6 8 5.4 12.9 5.4 5 0 9.2-1.8 12.8-5.4l155.3-155.3c3.7-3.6 5.5-8 5.5-12.9 0-5-1.8-9.2-5.5-12.8z"/></symbol><symbol id="search" viewBox="0 0 475 475"><path d="M465 413l-98-98c23-34 35-72 35-114a197 197 0 0 0-59-142 201 201 0 0 0-220-43 201 201 0 1 0 192 351l98 97c7 7 15 11 26 11 9 0 18-4 25-11s11-16 11-25c0-11-3-19-10-26zM291 291c-25 25-55 38-90 38s-65-13-90-38-38-55-38-90 13-65 38-90 55-38 90-38 65 13 90 38 38 55 38 90-13 65-38 90z"/></symbol><symbol id="soc-vk" viewBox="0 0 112.196 112.196"><circle cx="56.098" cy="56.098" r="56.098" fill="#4d76a1"/><path d="M53.979 80.702h4.403s1.33-.146 2.009-.878c.625-.672.605-1.934.605-1.934s-.086-5.908 2.656-6.778c2.703-.857 6.174 5.71 9.853 8.235 2.782 1.911 4.896 1.492 4.896 1.492l9.837-.137s5.146-.317 2.706-4.363c-.2-.331-1.421-2.993-7.314-8.463-6.168-5.725-5.342-4.799 2.088-14.702 4.525-6.031 6.334-9.713 5.769-11.29-.539-1.502-3.867-1.105-3.867-1.105l-11.076.069s-.821-.112-1.43.252c-.595.357-.978 1.189-.978 1.189s-1.753 4.667-4.091 8.636c-4.932 8.375-6.904 8.817-7.71 8.297-1.875-1.212-1.407-4.869-1.407-7.467 0-8.116 1.231-11.5-2.397-12.376-1.204-.291-2.09-.483-5.169-.514-3.952-.041-7.297.012-9.191.94-1.26.617-2.232 1.992-1.64 2.071.732.098 2.39.447 3.269 1.644 1.135 1.544 1.095 5.012 1.095 5.012s.652 9.554-1.523 10.741c-1.493.814-3.541-.848-7.938-8.446-2.253-3.892-3.954-8.194-3.954-8.194s-.328-.804-.913-1.234c-.71-.521-1.702-.687-1.702-.687l-10.525.069s-1.58.044-2.16.731c-.516.611-.041 1.875-.041 1.875s8.24 19.278 17.57 28.993c8.555 8.907 18.27 8.322 18.27 8.322z" fill-rule="evenodd" clip-rule="evenodd" fill="#fff"/></symbol><symbol id="user" viewBox="0 0 439 439"><path d="M219 219c31 0 56-10 78-32 21-21 32-47 32-77 0-31-11-56-32-78-22-21-47-32-78-32s-56 11-77 32c-22 22-32 47-32 78 0 30 10 56 32 77 21 22 47 32 77 32z"/><path d="M419 335a292 292 0 0 0-11-62c-3-10-7-19-13-28a75 75 0 0 0-42-38c-9-4-20-6-32-6l-12 6-21 14a135 135 0 0 1-107 14c-13-5-23-9-31-14a2784 2784 0 0 1-33-20c-12 0-22 2-32 6-9 4-18 9-24 15-7 6-13 14-18 23s-9 18-12 28a242 242 0 0 0-12 62l-1 30c0 22 7 40 21 54 14 13 32 20 56 20h249c23 0 42-7 55-20 14-14 21-32 21-54l-1-30z"/></symbol></svg>