<svg xmlns="http://www.w3.org/2000/svg"><symbol id="cancel" viewBox="0 0 339.2 339.2"><path d="M247.2 169.6l84-84c5.3-5.3 8-11.7 8-19.4 0-7.6-2.7-14-8-19.4L292.4 8c-5.4-5.3-11.8-8-19.5-8-7.6 0-14 2.7-19.4 8l-84 84L85.8 8C80.4 2.7 74 0 66.3 0c-7.6 0-14 2.7-19.4 8L8 46.8c-5.3 5.4-8 11.8-8 19.4C0 74 2.7 80.3 8 85.7l84 83.9-84 84c-5.3 5.3-8 11.7-8 19.3 0 7.7 2.7 14.1 8 19.5l38.8 38.8c5.4 5.3 11.8 8 19.4 8 7.7 0 14.1-2.7 19.5-8l83.9-84 84 84c5.3 5.3 11.7 8 19.4 8 7.6 0 14-2.7 19.4-8l38.8-38.8c5.3-5.4 8-11.8 8-19.5 0-7.6-2.7-14-8-19.4l-84-84z"/></symbol><symbol id="comment" viewBox="0 0 512 512"><path d="M302 328c31-13 55-31 73-54 18-22 27-47 27-73s-9-51-27-73c-18-23-42-41-73-54s-65-19-101-19-70 6-101 19-55 31-73 54a112 112 0 0 0-7 137c14 20 32 37 56 50a157 157 0 0 1-13 24 985 985 0 0 0-24 28l-1 2-1 1v5c0 3 1 5 3 6l6 3h1a239 239 0 0 0 104-41 287 287 0 0 0 151-15z"/><path d="M491 338a112 112 0 0 0-1-130c-14-20-33-37-58-50a147 147 0 0 1-13 115c-12 23-31 44-54 61-22 16-48 28-76 37a302 302 0 0 1-113 12c38 25 83 37 135 37 16 0 33-1 50-4a240 240 0 0 0 104 41l6-2 4-6v-4l-1-2v-1a14 14 0 0 0-2-3 36 36 0 0 1-3-3 199 199 0 0 0-14-16 868 868 0 0 0-13-19l-6-12c23-14 42-31 55-51z"/></symbol><symbol id="logout" viewBox="0 0 447.7 447.7"><path d="M182.7 379.2a7.4 7.4 0 0 1-.5-4c.1-1-.5-1.8-2-2.5-1.6-.6-2.3-1.2-2.3-1.5 0-.4-1.1-.7-3.3-.9l-3.3-.3H82.2A44 44 0 0 1 50 356.6a44 44 0 0 1-13.5-32.3v-201A44 44 0 0 1 50 91.1a44 44 0 0 1 32.2-13.4h91.4c2.5 0 4.4-.7 5.8-1.9 1.5-1.2 2.4-3 2.9-5.6A48 48 0 0 0 183 56l-.3-5.8c0-2.4-.9-4.6-2.7-6.4a8.8 8.8 0 0 0-6.4-2.7H82.2c-22.6 0-42 8-58 24.1A79.2 79.2 0 0 0 0 123.3v201c0 22.7 8 42 24.1 58.1s35.5 24.2 58.1 24.2h91.4c2.5 0 4.4-.7 5.8-1.9 1.5-1.2 2.4-3 2.9-5.6a48.1 48.1 0 0 0 .7-14.2l-.3-5.7z"/><path d="M442.2 211L287 55.7a17.6 17.6 0 0 0-12.8-5.5c-5 0-9.2 1.9-12.9 5.5a17.6 17.6 0 0 0-5.4 12.8v82.2H128c-5 0-9.2 1.9-12.8 5.5a17.6 17.6 0 0 0-5.5 12.8v109.7c0 4.9 1.8 9.2 5.5 12.8 3.6 3.6 7.9 5.4 12.8 5.4h128v82.3c0 4.9 1.7 9.2 5.3 12.8 3.7 3.6 8 5.4 12.9 5.4 5 0 9.2-1.8 12.8-5.4l155.3-155.3c3.7-3.6 5.5-8 5.5-12.9 0-5-1.8-9.2-5.5-12.8z"/></symbol><symbol id="search" viewBox="0 0 475 475"><path d="M465 413l-98-98c23-34 35-72 35-114a197 197 0 0 0-59-142 201 201 0 0 0-220-43 201 201 0 1 0 192 351l98 97c7 7 15 11 26 11 9 0 18-4 25-11s11-16 11-25c0-11-3-19-10-26zM291 291c-25 25-55 38-90 38s-65-13-90-38-38-55-38-90 13-65 38-90 55-38 90-38 65 13 90 38 38 55 38 90-13 65-38 90z"/></symbol><symbol id="soc-facebook" viewBox="0 0 100 100"><circle cx="50" cy="50" r="45" fill="#43619B"/><path fill="#FFF" fill-rule="evenodd" d="M58.4 31.8V38h-4c-1 0-1.6.5-1.7 1.5v4h5.8l-.7 6.5h-5.1v18.3h-7.6V50h-3.6v-6.4h3.6v-5.1c.3-2.4 1.2-4.5 3.4-5.8 1.2-.7 2.4-1 3.7-1h6.2z" clip-rule="evenodd"/></symbol><symbol id="soc-instagram" viewBox="0 0 100 100"><circle cx="50" cy="50" r="45" fill="#2A5C83"/><path fill="#FFF" d="M63.2 32.7H36.8a4.1 4.1 0 0 0-4.1 4v26.5c0 2.3 1.8 4.1 4.1 4.1h26.4c2.3 0 4.1-1.8 4.1-4V36.7c0-2.3-1.8-4.1-4.1-4.1zM57.6 38c0-.6.5-1 1-1H62c.6 0 1 .4 1 1v3.2c0 .6-.4 1.1-1 1.1h-3.2a1 1 0 0 1-1.1-1V38zM50 43.4a6.7 6.7 0 1 1 0 13.3 6.7 6.7 0 0 1 0-13.3zM64 63c0 .6-.4 1-1 1H37a1 1 0 0 1-1-1V46.8h4.3c-.6.8-.8 2.3-.8 3.2a10.5 10.5 0 0 0 21 0c0-1 0-2.4-.8-3.2h4.4V63z"/></symbol><symbol id="soc-odnoklassniki" viewBox="0 0 100 100"><circle cx="50" cy="50" r="45" fill="#F99400"/><g fill="#FFF" fill-rule="evenodd" clip-rule="evenodd"><path d="M45.72 59.26a19.6 19.6 0 0 1-6.08-2.52 3.08 3.08 0 0 1-1.03-4.22 3.06 3.06 0 0 1 4.24-1.05c1.46.88 3 1.52 4.68 1.83 3.31.59 6.42.04 9.32-1.66.59-.35 1.18-.62 1.89-.62a3.1 3.1 0 0 1 2.96 2.19c.4 1.3-.1 2.73-1.26 3.47a19.24 19.24 0 0 1-5.85 2.5l-.3.08.21.24 5.56 5.56a3.1 3.1 0 1 1-4.3 4.42c-1.86-1.84-3.7-3.68-5.54-5.53l-.27-.3c-.06.12-.1.22-.16.3l-5.55 5.54a3.08 3.08 0 1 1-4.51-4.2c.15-.18.31-.34.47-.5l5.3-5.3.22-.23z"/><path d="M50 29.57a10.53 10.53 0 1 1-10.55 10.56 10.55 10.55 0 0 1 10.56-10.56zm4.36 10.55a4.36 4.36 0 1 0-8.72-.02 4.36 4.36 0 0 0 8.72.02z"/></g></symbol><symbol id="soc-twitter" viewBox="0 0 100 100"><circle cx="50" cy="50" r="45" fill="#2EA6DE"/><path fill="#FFF" d="M68.8 34a16 16 0 0 1-5.2 2 8 8 0 0 0-6-2.6 8.3 8.3 0 0 0-7.9 10.3A23 23 0 0 1 32.9 35a8.5 8.5 0 0 0 2.5 11 8 8 0 0 1-3.7-1c0 4.1 2.8 7.5 6.6 8.3a7.8 7.8 0 0 1-3.7.1c1 3.4 4 5.8 7.6 5.8a16.1 16.1 0 0 1-12 3.5c3.5 2.4 7.8 3.8 12.4 3.8 15 0 23.2-12.8 23.2-23.8v-1.1c1.6-1.2 3-2.7 4-4.3a16 16 0 0 1-4.6 1.3c1.7-1 3-2.7 3.6-4.6z"/></symbol><symbol id="soc-vk" viewBox="0 0 100 100"><circle cx="50" cy="50" r="45" fill="#4A74A5"/><path fill="#FFF" fill-rule="evenodd" d="M42.27 38.83c.21-.55.6-.89 1.09-1.13.92-.45 1.92-.6 2.93-.57 1.44.03 2.88.12 4.32.18a5.6 5.6 0 0 1 1.9.3 2.1 2.1 0 0 1 1.42 2.03c.01.78-.1 1.56-.12 2.34-.06 1.67-.13 3.34-.13 5 0 .54.22 1.07.36 1.59.04.15.14.28.23.4.35.5.47.5.96.19a7.97 7.97 0 0 0 2.21-2.25 25.26 25.26 0 0 0 2.21-3.74c.62-1.3 1.24-2.61 1.83-3.94.28-.66.73-.94 1.45-.93h8.09c.86 0 1.48.74 1.28 1.59-.2.9-.6 1.7-1.08 2.46a44.05 44.05 0 0 1-4.52 6.15 6.33 6.33 0 0 0-1.41 2.27c-.3.95-.1 1.78.6 2.49 1.25 1.25 2.54 2.47 3.76 3.75.73.76 1.36 1.6 2 2.44.4.54.67 1.15.6 1.86-.09.78-.49 1.19-1.27 1.23-1.52.08-3.04.14-4.56.2-.89.04-1.77.1-2.66.13-.7.03-1.34-.23-1.94-.57-.95-.55-1.75-1.3-2.53-2.05a13.95 13.95 0 0 1-2.17-2.58c-.39-.6-1.46-.94-2.13-.69-.52.2-.77.62-.82 1.15-.1.87-.14 1.75-.22 2.62-.1 1.07-.78 1.74-1.85 1.88-2.1.29-4.2.18-6.27-.23a10.67 10.67 0 0 1-4.1-1.92 25.9 25.9 0 0 1-6.5-6.9 91.59 91.59 0 0 1-5.4-8.85c-.77-1.47-1.54-2.94-1.95-4.57-.1-.36-.14-.74-.21-1.11-.04-.19.03-.32.2-.37.44-.14.87-.34 1.32-.36 1.43-.06 2.86-.05 4.29-.06.62 0 1.24.06 1.85.03.83-.05 1.39.34 1.74 1.03.36.7.67 1.42 1 2.12 1.23 2.53 2.55 5 4.26 7.25.25.33.63.59 1 .8.44.25.82.12 1.09-.31.32-.52.46-1.09.47-1.69.03-1.69.08-3.38.06-5.06-.02-1.75-.88-2.9-2.52-3.53l-.16-.07z" clip-rule="evenodd"/></symbol><symbol id="user" viewBox="0 0 439 439"><path d="M219 219c31 0 56-10 78-32 21-21 32-47 32-77 0-31-11-56-32-78-22-21-47-32-78-32s-56 11-77 32c-22 22-32 47-32 78 0 30 10 56 32 77 21 22 47 32 77 32z"/><path d="M419 335a292 292 0 0 0-11-62c-3-10-7-19-13-28a75 75 0 0 0-42-38c-9-4-20-6-32-6l-12 6-21 14a135 135 0 0 1-107 14c-13-5-23-9-31-14a2784 2784 0 0 1-33-20c-12 0-22 2-32 6-9 4-18 9-24 15-7 6-13 14-18 23s-9 18-12 28a242 242 0 0 0-12 62l-1 30c0 22 7 40 21 54 14 13 32 20 56 20h249c23 0 42-7 55-20 14-14 21-32 21-54l-1-30z"/></symbol></svg>